# xmcd
#
# Track frame offsets: 
#        182
#        15407
#        33342
#        50115
#        63407
#        85912
#        97982
#        119627
#        131632
#        149817
#
# Disc length: 2264 seconds
#
# Revision: 0
# Processed by: cddbd v1.5.1PL0 Copyright (c) Steve Scherf et al.
# Submitted via: ExactAudioCopy v0.95b3
#
DISCID=8f08d60a
DTITLE=Daryle Ryce - From Now On
DYEAR=1994
DGENRE=Blues
TTITLE0=Same ol same ol
TTITLE1=From now on
TTITLE2=You walked away
TTITLE3=Aces don't come every hand
TTITLE4=I'm glad
TTITLE5=Dance, Dance
TTITLE6=Shelter For a homeless heart
TTITLE7=Last one to know
TTITLE8=I Love you but i can't
TTITLE9=You' re my only love
EXTD=
EXTT0=
EXTT1=
EXTT2=
EXTT3=
EXTT4=
EXTT5=
EXTT6=
EXTT7=
EXTT8=
EXTT9=
PLAYORDER=
